<svg xmlns="http://www.w3.org/2000/svg" viewBox="0 0 100 100">
  <!-- Background -->
  <rect width="100" height="100" fill="white" rx="8" ry="8" />
  
  <!-- Position Detection Pattern: Top-Left -->
  <rect x="10" y="10" width="24" height="24" fill="#1E3A8A" rx="2" ry="2" />
  <rect x="14" y="14" width="16" height="16" fill="white" rx="1" ry="1" />
  <rect x="18" y="18" width="8" height="8" fill="#1E3A8A" />
  
  <!-- Position Detection Pattern: Top-Right -->
  <rect x="66" y="10" width="24" height="24" fill="#1E3A8A" rx="2" ry="2" />
  <rect x="70" y="14" width="16" height="16" fill="white" rx="1" ry="1" />
  <rect x="74" y="18" width="8" height="8" fill="#1E3A8A" />
  
  <!-- Position Detection Pattern: Bottom-Left -->
  <rect x="10" y="66" width="24" height="24" fill="#1E3A8A" rx="2" ry="2" />
  <rect x="14" y="70" width="16" height="16" fill="white" rx="1" ry="1" />
  <rect x="18" y="74" width="8" height="8" fill="#1E3A8A" />
  
  <!-- Timing Patterns: Dots instead of solid lines -->
  <rect x="38" y="10" width="4" height="4" fill="#1E3A8A" rx="1" ry="1" />
  <rect x="46" y="10" width="4" height="4" fill="#1E3A8A" rx="1" ry="1" />
  <rect x="54" y="10" width="4" height="4" fill="#1E3A8A" rx="1" ry="1" />
  
  <rect x="10" y="38" width="4" height="4" fill="#1E3A8A" rx="1" ry="1" />
  <rect x="10" y="46" width="4" height="4" fill="#1E3A8A" rx="1" ry="1" />
  <rect x="10" y="54" width="4" height="4" fill="#1E3A8A" rx="1" ry="1" />
  
  <!-- Scattered Data Modules -->
  <rect x="76" y="34" width="4" height="4" fill="#1E3A8A" rx="1" ry="1" />
  <rect x="86" y="44" width="4" height="4" fill="#1E3A8A" rx="1" ry="1" />
  <rect x="76" y="54" width="4" height="4" fill="#1E3A8A" rx="1" ry="1" />
  
  <rect x="34" y="76" width="4" height="4" fill="#1E3A8A" rx="1" ry="1" />
  <rect x="44" y="86" width="4" height="4" fill="#1E3A8A" rx="1" ry="1" />
  <rect x="54" y="76" width="4" height="4" fill="#1E3A8A" rx="1" ry="1" />
  
  <!-- Center Customization Element: Color Palette -->
  <circle cx="50" cy="50" r="16" fill="white" stroke="#1E3A8A" stroke-width="2" />
  
  <!-- Color Palette Colors -->
  <path d="M 50 34 
           A 16 16 0 0 1 64.14 42 
           L 50 50 Z" 
        fill="#9F1239" /> <!-- Coral color from your palette -->
  
  <path d="M 64.14 42 
           A 16 16 0 0 1 64.14 58 
           L 50 50 Z" 
        fill="#065F46" /> <!-- Mint color from your palette -->
  
  <path d="M 64.14 58 
           A 16 16 0 0 1 50 66 
           L 50 50 Z" 
        fill="#FFD700" /> <!-- Gold color for contrast -->
  
  <path d="M 50 66 
           A 16 16 0 0 1 35.86 58 
           L 50 50 Z" 
        fill="#312E81" /> <!-- Contrast Plus color from your palette -->
  
  <path d="M 35.86 58 
           A 16 16 0 0 1 35.86 42 
           L 50 50 Z" 
        fill="#334155" /> <!-- Blaugrau color from your palette -->
  
  <path d="M 35.86 42 
           A 16 16 0 0 1 50 34 
           L 50 50 Z" 
        fill="#1E293B" /> <!-- Dark color from your palette -->
  
  <!-- Central Hub -->
  <circle cx="50" cy="50" r="5" fill="white" stroke="#1E3A8A" stroke-width="1.5" />
</svg>
